<svg width="110" height="126" viewBox="0 0 110 126" fill="none" xmlns="http://www.w3.org/2000/svg">
<path d="M30.2996 75.681C30.5246 76.2228 30.5902 76.784 30.4964 77.3647C30.4084 77.9314 30.1495 78.4761 29.7198 78.9987C29.2958 79.5075 28.7151 79.9308 27.9776 80.2686L28.4747 81.4655L27.5276 81.8549L27.0244 80.6433C25.9419 80.9846 24.9695 81.0211 24.1073 80.7528C23.2411 80.4747 22.5959 79.8807 22.1719 78.9709L24.8651 77.8636C25.1698 78.4303 25.6134 78.6919 26.1959 78.6485L25.2263 76.3138C24.375 76.4332 23.6787 76.4946 23.1373 76.4981C22.6057 76.4975 22.0814 76.3613 21.5643 76.0896C21.0472 75.8178 20.6393 75.3223 20.3406 74.6032C19.9683 73.7068 20.0002 72.8518 20.4361 72.0382C20.882 71.2206 21.6134 70.5623 22.6305 70.0634L22.1334 68.8665L23.0805 68.4771L23.5776 69.674C24.6462 69.3269 25.5898 69.2907 26.4084 69.5653C27.227 69.84 27.8631 70.4261 28.3167 71.3237L25.6087 72.4372C25.3286 71.9296 24.9338 71.6882 24.4244 71.7131L25.3756 74.0035C26.2885 73.8934 27.0038 73.8357 27.5214 73.8305C28.039 73.8253 28.5563 73.9586 29.0734 74.2303C29.5963 74.4882 30.005 74.9718 30.2996 75.681ZM22.97 73.3837C23.0722 73.63 23.2321 73.8065 23.4497 73.9131C23.6771 74.0156 23.9604 74.0721 24.2997 74.0826L23.4467 72.0287C23.1909 72.1915 23.0189 72.3891 22.9306 72.6215C22.8382 72.844 22.8513 73.0981 22.97 73.3837ZM27.1614 78.3034C27.4369 78.1325 27.6197 77.9189 27.7096 77.6628C27.8095 77.4026 27.8021 77.1346 27.6876 76.8588C27.5812 76.6027 27.4114 76.4303 27.1783 76.3416C26.9509 76.239 26.6548 76.1936 26.29 76.2052L27.1614 78.3034Z" fill="#FFC700"/>
<path d="M92.4656 75.8709C92.6906 76.4127 92.7562 76.9739 92.6624 77.5545C92.5744 78.1213 92.3155 78.6659 91.8858 79.1886C91.4618 79.6974 90.8811 80.1207 90.1436 80.4585L90.6407 81.6554L89.6936 82.0448L89.1904 80.8332C88.1079 81.1745 87.1355 81.211 86.2733 80.9427C85.4071 80.6645 84.7619 80.0706 84.3379 79.1608L87.0311 78.0535C87.3358 78.6202 87.7794 78.8818 88.3619 78.8383L87.3923 76.5037C86.541 76.6231 85.8447 76.6845 85.3033 76.688C84.7717 76.6874 84.2474 76.5512 83.7303 76.2794C83.2132 76.0077 82.8053 75.5122 82.5066 74.7931C82.1343 73.8967 82.1662 73.0417 82.6021 72.2281C83.048 71.4105 83.7794 70.7522 84.7965 70.2533L84.2994 69.0564L85.2465 68.667L85.7436 69.8639C86.8122 69.5168 87.7558 69.4806 88.5744 69.7552C89.393 70.0299 90.0291 70.616 90.4827 71.5136L87.7747 72.6271C87.4946 72.1194 87.0998 71.8781 86.5904 71.903L87.5416 74.1934C88.4545 74.0833 89.1698 74.0256 89.6874 74.0204C90.205 74.0152 90.7223 74.1484 91.2394 74.4202C91.7623 74.6781 92.171 75.1616 92.4656 75.8709ZM85.136 73.5736C85.2382 73.8199 85.3981 73.9963 85.6157 74.103C85.8431 74.2055 86.1264 74.262 86.4657 74.2725L85.6127 72.2185C85.3569 72.3814 85.1849 72.579 85.0966 72.8113C85.0042 73.0338 85.0173 73.2879 85.136 73.5736ZM89.3274 78.4933C89.6029 78.3223 89.7857 78.1088 89.8756 77.8527C89.9755 77.5925 89.9681 77.3245 89.8536 77.0487C89.7472 76.7925 89.5774 76.6202 89.3443 76.5315C89.1169 76.4289 88.8208 76.3834 88.456 76.395L89.3274 78.4933Z" fill="#FFC700"/>
<path d="M66.4656 50.0009C66.6906 50.5427 66.7562 51.1039 66.6624 51.6845C66.5744 52.2513 66.3155 52.796 65.8858 53.3186C65.4618 53.8274 64.8811 54.2507 64.1436 54.5885L64.6407 55.7854L63.6936 56.1748L63.1904 54.9632C62.1079 55.3045 61.1355 55.341 60.2733 55.0727C59.4071 54.7945 58.7619 54.2006 58.3379 53.2908L61.0311 52.1835C61.3358 52.7502 61.7794 53.0118 62.3619 52.9684L61.3923 50.6337C60.541 50.7531 59.8447 50.8145 59.3033 50.818C58.7717 50.8174 58.2474 50.6812 57.7303 50.4094C57.2132 50.1377 56.8053 49.6422 56.5066 48.9231C56.1343 48.0267 56.1662 47.1717 56.6021 46.3581C57.048 45.5405 57.7794 44.8822 58.7965 44.3833L58.2994 43.1864L59.2465 42.797L59.7436 43.9939C60.8122 43.6468 61.7558 43.6106 62.5744 43.8852C63.393 44.1599 64.0291 44.746 64.4827 45.6436L61.7747 46.7571C61.4946 46.2495 61.0998 46.0081 60.5904 46.033L61.5416 48.3234C62.4545 48.2133 63.1698 48.1556 63.6874 48.1504C64.205 48.1452 64.7223 48.2784 65.2394 48.5502C65.7623 48.8081 66.171 49.2916 66.4656 50.0009ZM59.136 47.7036C59.2382 47.9499 59.3981 48.1263 59.6157 48.233C59.8431 48.3355 60.1264 48.392 60.4657 48.4025L59.6127 46.3485C59.3569 46.5114 59.1849 46.709 59.0966 46.9413C59.0042 47.1639 59.0173 47.418 59.136 47.7036ZM63.3274 52.6233C63.6029 52.4523 63.7857 52.2388 63.8756 51.9827C63.9755 51.7225 63.9681 51.4545 63.8536 51.1787C63.7472 50.9225 63.5774 50.7502 63.3443 50.6615C63.1169 50.5589 62.8208 50.5134 62.456 50.525L63.3274 52.6233Z" fill="#FFC700"/>
<path d="M11.7268 52.7549C11.5581 53.3168 11.2535 53.7938 10.8128 54.1858C10.3854 54.5707 9.83945 54.8313 9.17486 54.9676C8.52356 55.0967 7.80478 55.0611 7.01851 54.8608L6.64587 56.1021L5.6643 55.8103L6.04155 54.5537C4.98534 54.1397 4.20775 53.558 3.70876 52.8088C3.21285 52.0494 3.08859 51.1835 3.336 50.211L6.12732 51.0406C6.00464 51.6718 6.18308 52.1533 6.66262 52.485L7.3895 50.0637C6.65332 49.6224 6.07409 49.2332 5.65181 48.8963C5.23975 48.5624 4.91919 48.1277 4.69015 47.5923C4.4611 47.0568 4.45852 46.4162 4.68241 45.6704C4.96151 44.7407 5.52793 44.0968 6.38167 43.7385C7.24563 43.3832 8.23024 43.3309 9.33552 43.5815L9.70817 42.3403L10.6897 42.632L10.3171 43.8733C11.3661 44.2741 12.1212 44.8379 12.5824 45.5647C13.0435 46.2916 13.1657 47.1458 12.949 48.1274L10.1424 47.2932C10.2466 46.7233 10.0932 46.2882 9.68221 45.988L8.96913 48.3633C9.74723 48.8505 10.3387 49.2544 10.7436 49.5751C11.1485 49.8957 11.4655 50.3237 11.6946 50.8592C11.9369 51.3875 11.9477 52.0194 11.7268 52.7549ZM7.4952 46.3729C7.41853 46.6283 7.4308 46.8656 7.53203 47.0849C7.64349 47.3072 7.82754 47.5288 8.08418 47.7497L8.72365 45.6197C8.42203 45.5856 8.16335 45.6312 7.94762 45.7562C7.73495 45.8711 7.58415 46.0766 7.4952 46.3729ZM7.63038 52.8227C7.95245 52.8628 8.22953 52.8116 8.46163 52.6691C8.70394 52.5297 8.86804 52.317 8.95392 52.0309C9.03366 51.7653 9.01116 51.5249 8.88641 51.3098C8.77496 51.0875 8.57404 50.8665 8.28365 50.6466L7.63038 52.8227Z" fill="#FFC700"/>
<path d="M38.7653 25.7718C38.5966 26.3337 38.2919 26.8106 37.8513 27.2027C37.4239 27.5875 36.8779 27.8481 36.2133 27.9844C35.562 28.1135 34.8432 28.078 34.057 27.8777L33.6843 29.1189L32.7028 28.8272L33.08 27.5706C32.0238 27.1565 31.2462 26.5749 30.7472 25.8257C30.2513 25.0663 30.1271 24.2003 30.3745 23.2278L33.1658 24.0574C33.0431 24.6887 33.2215 25.1701 33.7011 25.5018L34.428 23.0806C33.6918 22.6392 33.1126 22.2501 32.6903 21.9131C32.2782 21.5792 31.9577 21.1445 31.7286 20.6091C31.4996 20.0737 31.497 19.433 31.7209 18.6873C32 17.7576 32.5664 17.1136 33.4201 16.7553C34.2841 16.4001 35.2687 16.3478 36.374 16.5984L36.7466 15.3571L37.7282 15.6488L37.3556 16.8901C38.4046 17.2909 39.1597 17.8547 39.6209 18.5816C40.082 19.3084 40.2042 20.1626 39.9875 21.1442L37.1808 20.31C37.2851 19.7401 37.1317 19.3051 36.7207 19.0049L36.0076 21.3801C36.7857 21.8673 37.3772 22.2713 37.7821 22.5919C38.187 22.9125 38.504 23.3406 38.733 23.876C38.9754 24.4043 38.9861 25.0362 38.7653 25.7718ZM34.5337 19.3897C34.457 19.6451 34.4693 19.8825 34.5705 20.1017C34.682 20.324 34.866 20.5456 35.1226 20.7666L35.7621 18.6365C35.4605 18.6025 35.2018 18.648 34.9861 18.7731C34.7734 18.8879 34.6226 19.0935 34.5337 19.3897ZM34.6688 25.8395C34.9909 25.8796 35.268 25.8284 35.5001 25.686C35.7424 25.5466 35.9065 25.3338 35.9924 25.0478C36.0721 24.7822 36.0496 24.5418 35.9249 24.3267C35.8134 24.1044 35.6125 23.8833 35.3221 23.6635L34.6688 25.8395Z" fill="#FFC700"/>
<path d="M91.7653 116.317C91.5966 116.879 91.2919 117.356 90.8513 117.748C90.4239 118.133 89.8779 118.393 89.2133 118.529C88.562 118.659 87.8432 118.623 87.057 118.423L86.6843 119.664L85.7028 119.372L86.08 118.116C85.0238 117.702 84.2462 117.12 83.7472 116.371C83.2513 115.611 83.1271 114.745 83.3745 113.773L86.1658 114.602C86.0431 115.234 86.2215 115.715 86.7011 116.047L87.428 113.626C86.6918 113.184 86.1126 112.795 85.6903 112.458C85.2782 112.124 84.9577 111.69 84.7286 111.154C84.4996 110.619 84.497 109.978 84.7209 109.232C85 108.303 85.5664 107.659 86.4201 107.3C87.2841 106.945 88.2687 106.893 89.374 107.143L89.7466 105.902L90.7282 106.194L90.3556 107.435C91.4046 107.836 92.1597 108.4 92.6209 109.127C93.082 109.853 93.2042 110.708 92.9875 111.689L90.1808 110.855C90.2851 110.285 90.1317 109.85 89.7207 109.55L89.0076 111.925C89.7857 112.412 90.3772 112.816 90.7821 113.137C91.187 113.458 91.504 113.886 91.733 114.421C91.9754 114.949 91.9861 115.581 91.7653 116.317ZM87.5337 109.935C87.457 110.19 87.4693 110.428 87.5705 110.647C87.682 110.869 87.866 111.091 88.1226 111.312L88.7621 109.182C88.4605 109.148 88.2018 109.193 87.9861 109.318C87.7734 109.433 87.6226 109.639 87.5337 109.935ZM87.6688 116.385C87.9909 116.425 88.268 116.373 88.5001 116.231C88.7424 116.092 88.9065 115.879 88.9924 115.593C89.0721 115.327 89.0496 115.087 88.9249 114.872C88.8134 114.649 88.6125 114.428 88.3221 114.209L87.6688 116.385Z" fill="#FFC700"/>
<path d="M65.6737 90.5235L62.9251 90.0805L62.4675 92.8915L59.9085 92.4791L60.3662 89.6681L57.6176 89.2251L58.011 86.8089L60.7595 87.2519L61.2197 84.4251L63.7787 84.8375L63.3185 87.6643L66.067 88.1073L65.6737 90.5235Z" fill="#56CCF2"/>
<path d="M39.6737 52.7135L36.9251 52.2705L36.4675 55.0815L33.9085 54.6691L34.3662 51.8581L31.6176 51.4151L32.011 48.9989L34.7595 49.4419L35.2197 46.6151L37.7787 47.0275L37.3185 49.8543L40.067 50.2973L39.6737 52.7135Z" fill="#56CCF2"/>
<path d="M13.6737 14.9035L10.9251 14.4605L10.4675 17.2715L7.90854 16.8591L8.36617 14.0481L5.61764 13.6051L6.011 11.1889L8.75952 11.6319L9.21973 8.8051L11.7787 9.21755L11.3185 12.0443L14.067 12.4873L13.6737 14.9035Z" fill="#56CCF2"/>
<path d="M73.8414 20.6837L71.1201 21.2711L71.7268 24.0537L69.1932 24.6006L68.5865 21.818L65.8651 22.4054L65.3437 20.0136L68.065 19.4262L67.4549 16.6279L69.9885 16.081L70.5986 18.8793L73.32 18.2919L73.8414 20.6837Z" fill="#56CCF2"/>
<path d="M101.787 42.5117L99.6388 44.2829L101.461 46.4712L99.4616 48.1202L97.639 45.9319L95.491 47.703L93.9243 45.822L96.0723 44.0508L94.2394 41.8502L96.2392 40.2012L98.0721 42.4018L100.22 40.6307L101.787 42.5117Z" fill="#56CCF2"/>
</svg>
