<svg width="310" height="199" viewBox="0 0 310 199" fill="none" xmlns="http://www.w3.org/2000/svg">
<rect width="310" height="199" fill="#143DB8"/>
<rect width="18" height="18.0002" rx="9" transform="matrix(0.70071 -0.713446 0.702583 0.711602 34 21.1976)" fill="#FFC700"/>
<rect width="18" height="18.0002" rx="9" transform="matrix(0.70071 -0.713446 0.702583 0.711602 61 21.1976)" fill="#EB5757"/>
<rect width="18" height="18.0002" rx="9" transform="matrix(0.70071 -0.713446 0.702583 0.711602 7 21.1976)" fill="#56CCF2"/>
<mask id="mask0_1411_402" style="mask-type:alpha" maskUnits="userSpaceOnUse" x="0" y="0" width="310" height="199">
<rect width="310" height="199" fill="#0063BE"/>
</mask>
<g mask="url(#mask0_1411_402)">
<path d="M241.261 60.756C241.486 61.2978 241.552 61.859 241.458 62.4397C241.37 63.0064 241.111 63.5511 240.681 64.0738C240.257 64.5825 239.677 65.0058 238.939 65.3437L239.436 66.5405L238.489 66.9299L237.986 65.7183C236.903 66.0596 235.931 66.0961 235.069 65.8278C234.203 65.5497 233.557 64.9557 233.133 64.046L235.827 62.9386C236.131 63.5053 236.575 63.7669 237.157 63.7235L236.188 61.3888C235.337 61.5082 234.64 61.5696 234.099 61.5731C233.567 61.5725 233.043 61.4363 232.526 61.1646C232.009 60.8928 231.601 60.3974 231.302 59.6782C230.93 58.7818 230.962 57.9268 231.398 57.1132C231.843 56.2956 232.575 55.6373 233.592 55.1384L233.095 53.9415L234.042 53.5521L234.539 54.749C235.608 54.4019 236.551 54.3657 237.37 54.6404C238.189 54.915 238.825 55.5012 239.278 56.3987L236.57 57.5122C236.29 57.0046 235.895 56.7632 235.386 56.7882L236.337 59.0785C237.25 58.9684 237.965 58.9107 238.483 58.9055C239 58.9003 239.518 59.0336 240.035 59.3053C240.558 59.5632 240.967 60.0468 241.261 60.756ZM233.931 58.4588C234.034 58.705 234.194 58.8815 234.411 58.9881C234.639 59.0907 234.922 59.1472 235.261 59.1576L234.408 57.1037C234.152 57.2665 233.98 57.4641 233.892 57.6965C233.8 57.919 233.813 58.1731 233.931 58.4588ZM238.123 63.3784C238.398 63.2075 238.581 62.9939 238.671 62.7378C238.771 62.4776 238.764 62.2096 238.649 61.9338C238.543 61.6777 238.373 61.5053 238.14 61.4166C237.912 61.3141 237.616 61.2686 237.252 61.2802L238.123 63.3784Z" fill="#FFC700"/>
<path d="M303.427 60.9459C303.652 61.4877 303.718 62.0489 303.624 62.6295C303.536 63.1963 303.277 63.741 302.847 64.2636C302.423 64.7724 301.843 65.1957 301.105 65.5335L301.602 66.7304L300.655 67.1198L300.152 65.9082C299.069 66.2495 298.097 66.286 297.235 66.0177C296.369 65.7395 295.723 65.1456 295.299 64.2358L297.993 63.1285C298.297 63.6952 298.741 63.9568 299.323 63.9134L298.354 61.5787C297.503 61.6981 296.806 61.7595 296.265 61.763C295.733 61.7624 295.209 61.6262 294.692 61.3544C294.175 61.0827 293.767 60.5872 293.468 59.8681C293.096 58.9717 293.128 58.1167 293.564 57.3031C294.009 56.4855 294.741 55.8272 295.758 55.3283L295.261 54.1314L296.208 53.742L296.705 54.9389C297.774 54.5918 298.717 54.5556 299.536 54.8302C300.355 55.1049 300.991 55.691 301.444 56.5886L298.736 57.7021C298.456 57.1945 298.061 56.9531 297.552 56.978L298.503 59.2684C299.416 59.1583 300.131 59.1006 300.649 59.0954C301.166 59.0902 301.684 59.2235 302.201 59.4952C302.724 59.7531 303.133 60.2366 303.427 60.9459ZM296.097 58.6486C296.2 58.8949 296.36 59.0714 296.577 59.178C296.805 59.2805 297.088 59.337 297.427 59.3475L296.574 57.2936C296.318 57.4564 296.146 57.654 296.058 57.8863C295.966 58.1089 295.979 58.363 296.097 58.6486ZM300.289 63.5683C300.564 63.3973 300.747 63.1838 300.837 62.9277C300.937 62.6675 300.93 62.3995 300.815 62.1237C300.709 61.8676 300.539 61.6952 300.306 61.6065C300.078 61.5039 299.782 61.4585 299.418 61.47L300.289 63.5683Z" fill="#FFC700"/>
<path d="M277.427 35.0759C277.652 35.6177 277.718 36.1789 277.624 36.7596C277.536 37.3263 277.277 37.871 276.847 38.3936C276.423 38.9024 275.843 39.3257 275.105 39.6635L275.602 40.8604L274.655 41.2498L274.152 40.0382C273.069 40.3795 272.097 40.416 271.235 40.1477C270.369 39.8696 269.723 39.2756 269.299 38.3658L271.993 37.2585C272.297 37.8252 272.741 38.0868 273.323 38.0434L272.354 35.7087C271.503 35.8281 270.806 35.8895 270.265 35.893C269.733 35.8924 269.209 35.7562 268.692 35.4845C268.175 35.2127 267.767 34.7172 267.468 33.9981C267.096 33.1017 267.128 32.2467 267.564 31.4331C268.009 30.6155 268.741 29.9572 269.758 29.4583L269.261 28.2614L270.208 27.872L270.705 29.0689C271.774 28.7218 272.717 28.6856 273.536 28.9602C274.355 29.2349 274.991 29.821 275.444 30.7186L272.736 31.8321C272.456 31.3245 272.061 31.0831 271.552 31.108L272.503 33.3984C273.416 33.2883 274.131 33.2306 274.649 33.2254C275.166 33.2202 275.684 33.3535 276.201 33.6252C276.724 33.8831 277.133 34.3667 277.427 35.0759ZM270.097 32.7786C270.2 33.0249 270.36 33.2014 270.577 33.308C270.805 33.4105 271.088 33.467 271.427 33.4775L270.574 31.4236C270.318 31.5864 270.146 31.784 270.058 32.0164C269.966 32.2389 269.979 32.493 270.097 32.7786ZM274.289 37.6983C274.564 37.5273 274.747 37.3138 274.837 37.0577C274.937 36.7975 274.93 36.5295 274.815 36.2537C274.709 35.9976 274.539 35.8252 274.306 35.7365C274.078 35.6339 273.782 35.5885 273.418 35.6L274.289 37.6983Z" fill="#FFC700"/>
<path d="M222.688 37.83C222.52 38.3918 222.215 38.8688 221.774 39.2608C221.347 39.6457 220.801 39.9063 220.136 40.0426C219.485 40.1717 218.766 40.1361 217.98 39.9358L217.607 41.1771L216.626 40.8854L217.003 39.6288C215.947 39.2147 215.169 38.633 214.67 37.8838C214.174 37.1244 214.05 36.2585 214.298 35.286L217.089 36.1156C216.966 36.7468 217.145 37.2283 217.624 37.56L218.351 35.1387C217.615 34.6974 217.036 34.3082 216.613 33.9713C216.201 33.6374 215.881 33.2027 215.652 32.6673C215.423 32.1318 215.42 31.4912 215.644 30.7454C215.923 29.8157 216.489 29.1718 217.343 28.8135C218.207 28.4582 219.192 28.4059 220.297 28.6565L220.67 27.4153L221.651 27.707L221.279 28.9483C222.328 29.3491 223.083 29.9129 223.544 30.6397C224.005 31.3666 224.127 32.2208 223.911 33.2024L221.104 32.3682C221.208 31.7983 221.055 31.3632 220.644 31.063L219.931 33.4383C220.709 33.9255 221.3 34.3294 221.705 34.6501C222.11 34.9707 222.427 35.3988 222.656 35.9342C222.898 36.4625 222.909 37.0944 222.688 37.83ZM218.457 31.4479C218.38 31.7033 218.392 31.9406 218.494 32.1599C218.605 32.3822 218.789 32.6038 219.046 32.8248L219.685 30.6947C219.384 30.6607 219.125 30.7062 218.909 30.8312C218.696 30.9461 218.546 31.1516 218.457 31.4479ZM218.592 37.8977C218.914 37.9378 219.191 37.8866 219.423 37.7441C219.665 37.6047 219.83 37.392 219.915 37.1059C219.995 36.8403 219.973 36.6 219.848 36.3848C219.736 36.1625 219.536 35.9415 219.245 35.7216L218.592 37.8977Z" fill="#FFC700"/>
<path d="M249.727 10.8468C249.558 11.4087 249.253 11.8857 248.813 12.2777C248.385 12.6625 247.839 12.9231 247.175 13.0594C246.524 13.1886 245.805 13.153 245.019 12.9527L244.646 14.1939L243.664 13.9022L244.042 12.6456C242.985 12.2315 242.208 11.6499 241.709 10.9007C241.213 10.1413 241.089 9.27531 241.336 8.30283L244.127 9.13246C244.005 9.76366 244.183 10.2451 244.663 10.5768L245.39 8.15557C244.653 7.71421 244.074 7.32506 243.652 6.98813C243.24 6.65423 242.919 6.21956 242.69 5.68411C242.461 5.14867 242.459 4.50806 242.682 3.76227C242.962 2.83259 243.528 2.18861 244.382 1.83033C245.246 1.47508 246.23 1.42277 247.336 1.67338L247.708 0.432108L248.69 0.723844L248.317 1.96512C249.366 2.36593 250.121 2.92976 250.582 3.65659C251.044 4.38342 251.166 5.23764 250.949 6.21924L248.142 5.38505C248.247 4.81514 248.093 4.38008 247.682 4.07987L246.969 6.45515C247.747 6.94235 248.339 7.34627 248.744 7.66692C249.149 7.98756 249.466 8.4156 249.695 8.95105C249.937 9.47931 249.948 10.1112 249.727 10.8468ZM245.495 4.46474C245.419 4.72015 245.431 4.95748 245.532 5.17674C245.643 5.39904 245.828 5.62066 246.084 5.8416L246.724 3.71152C246.422 3.67751 246.163 3.72303 245.948 3.84808C245.735 3.96292 245.584 4.16847 245.495 4.46474ZM245.63 10.9145C245.952 10.9546 246.23 10.9034 246.462 10.761C246.704 10.6216 246.868 10.4088 246.954 10.1228C247.034 9.85717 247.011 9.6168 246.886 9.40168C246.775 9.17938 246.574 8.95831 246.284 8.73847L245.63 10.9145Z" fill="#FFC700"/>
<path d="M302.727 101.392C302.558 101.954 302.253 102.431 301.813 102.823C301.385 103.208 300.839 103.468 300.175 103.604C299.524 103.734 298.805 103.698 298.019 103.498L297.646 104.739L296.664 104.447L297.042 103.191C295.985 102.777 295.208 102.195 294.709 101.446C294.213 100.686 294.089 99.8204 294.336 98.8479L297.127 99.6775C297.005 100.309 297.183 100.79 297.663 101.122L298.39 98.7006C297.653 98.2593 297.074 97.8701 296.652 97.5332C296.24 97.1993 295.919 96.7646 295.69 96.2292C295.461 95.6937 295.459 95.0531 295.682 94.3073C295.962 93.3776 296.528 92.7337 297.382 92.3754C298.246 92.0201 299.23 91.9678 300.336 92.2184L300.708 90.9772L301.69 91.2689L301.317 92.5102C302.366 92.911 303.121 93.4748 303.582 94.2016C304.044 94.9285 304.166 95.7827 303.949 96.7643L301.142 95.9301C301.247 95.3602 301.093 94.9251 300.682 94.6249L299.969 97.0002C300.747 97.4874 301.339 97.8913 301.744 98.212C302.149 98.5326 302.466 98.9606 302.695 99.4961C302.937 100.024 302.948 100.656 302.727 101.392ZM298.495 95.0098C298.419 95.2652 298.431 95.5025 298.532 95.7218C298.643 95.9441 298.828 96.1657 299.084 96.3866L299.724 94.2566C299.422 94.2226 299.163 94.2681 298.948 94.3931C298.735 94.508 298.584 94.7135 298.495 95.0098ZM298.63 101.46C298.952 101.5 299.23 101.448 299.462 101.306C299.704 101.167 299.868 100.954 299.954 100.668C300.034 100.402 300.011 100.162 299.886 99.9467C299.775 99.7244 299.574 99.5034 299.284 99.2835L298.63 101.46Z" fill="#FFC700"/>
<path d="M276.635 75.5985L273.887 75.1555L273.429 77.9665L270.87 77.5541L271.328 74.7431L268.579 74.3001L268.973 71.8839L271.721 72.3269L272.181 69.5001L274.74 69.9126L274.28 72.7393L277.029 73.1823L276.635 75.5985Z" fill="#56CCF2"/>
<path d="M250.635 37.7885L247.887 37.3455L247.429 40.1565L244.87 39.7441L245.328 36.9331L242.579 36.4901L242.973 34.0739L245.721 34.5169L246.181 31.6901L248.74 32.1026L248.28 34.9293L251.029 35.3723L250.635 37.7885Z" fill="#56CCF2"/>
<path d="M224.635 -0.0214684L221.887 -0.464468L221.429 2.34652L218.87 1.93408L219.328 -0.876915L216.579 -1.31991L216.973 -3.7361L219.721 -3.29311L220.181 -6.11989L222.74 -5.70744L222.28 -2.88066L225.029 -2.43766L224.635 -0.0214684Z" fill="#56CCF2"/>
<path d="M284.803 5.7587L282.082 6.34611L282.688 9.12874L280.155 9.67563L279.548 6.893L276.827 7.4804L276.305 5.08859L279.027 4.50119L278.416 1.70292L280.95 1.15603L281.56 3.95429L284.281 3.36689L284.803 5.7587Z" fill="#56CCF2"/>
<path d="M312.748 27.5867L310.6 29.3579L312.423 31.5462L310.423 33.1952L308.6 31.0069L306.453 32.778L304.886 30.897L307.034 29.1258L305.201 26.9252L307.201 25.2762L309.034 27.4768L311.182 25.7057L312.748 27.5867Z" fill="#56CCF2"/>
</g>
</svg>
